#!OML:ASF F:\VICON\USERDATA\INSTALL\rory3\rory3.ASF
:FULLY-SPECIFIED
:DEGREES
398
root -1.5973 17.7468 9.14069 -180.549 -3.95861 178.195
lowerback 12.1796 0.875356 -2.96517
upperback 0.185969 0.7555 1.23594
thorax -6.70581 0.454071 2.85199
lowerneck -21.1573 -2.95616 -11.6402
upperneck 34.1264 -4.99199 7.41661
head 16.2407 -3.32711 4.05557
rclavicle 7.50412e-015 1.74931e-014
rhumerus -35.6473 -18.9888 -74.782
rradius 33.4606
rwrist 11.7835
rhand -12.3997 9.77604
rfingers 7.12502
rthumb 13.6718 -19.7549
lclavicle 7.50412e-015 1.74931e-014
lhumerus -32.9143 3.83198 81.5842
lradius 34.6195
lwrist -2.5335
lhand -20.5479 25.3504
lfingers 7.12502
lthumb 5.81085 55.2507
rfemur -12.714 -4.13374 13.526
rtibia 44.0136
rfoot -25.1181 4.492
rtoes -8.4236
lfemur -3.9155 -5.51495 -18.6353
ltibia 21.7472
lfoot -15.5451 -10.8468
ltoes -7.58941
399
root -1.65047 17.7354 9.15527 -180.524 -3.97652 178.259
lowerback 12.1369 0.847027 -3.01157
upperback 0.191801 0.711334 1.21238
thorax -6.67268 0.433135 2.86129
lowerneck -21.0858 -2.89505 -11.7892
upperneck 34.2005 -4.94311 7.57906
head 16.2635 -3.31688 4.1657
rclavicle 2.78299e-015 0
rhumerus -35.6157 -18.8665 -74.9992
rradius 33.4204
rwrist 11.7877
rhand -12.436 9.87465
rfingers 7.12502
rthumb 13.6368 -19.6587
lclavicle 2.78299e-015 0
lhumerus -32.7998 4.2951 81.2311
lradius 34.3973
lwrist -2.79288
lhand -20.5188 25.5821
lfingers 7.12502
lthumb 5.83892 55.4816
rfemur -12.9728 -4.55453 14.5161
rtibia 44.3149
rfoot -25.6556 5.61251
rtoes -9.04816
lfemur -4.18886 -5.48792 -18.7175
ltibia 22.12
lfoot -15.619 -11.0259
ltoes -7.42115
400
root -1.69699 17.7391 9.16603 -180.364 -4.05843 178.233
lowerback 12.0254 0.787688 -3.17182
upperback 0.164809 0.612887 1.16004
thorax -6.63273 0.390433 2.91421
lowerneck -21.3869 -2.84645 -11.9373
upperneck 34.5008 -4.89828 7.77014
head 16.4918 -3.30763 4.29674
rclavicle 2.5842e-015 -3.97569e-016
rhumerus -35.5566 -18.5069 -75.3591
rradius 33.5103
rwrist 11.5469
rhand -12.5239 9.96484
rfingers 7.12502
rthumb 13.5521 -19.5741
lclavicle 2.5842e-015 -3.97569e-016
lhumerus -32.7622 4.68794 80.8992
lradius 34.3229
lwrist -2.98396
lhand -20.867 25.577
lfingers 7.12502
lthumb 5.50275 55.4856
rfemur -13.2664 -5.03256 15.444
rtibia 44.5054
rfoot -26.2384 6.5394
rtoes -10.2656
lfemur -4.62471 -5.2947 -18.883
ltibia 22.5713
lfoot -15.8204 -11.1389
ltoes -7.6463
401
root -1.74244 17.7365 9.16966 -180.212 -4.11214 178.25
lowerback 11.7583 0.780596 -3.35725
upperback 0.182515 0.589126 1.16362
thorax -6.46394 0.382435 3.02738
lowerneck -21.3581 -2.84305 -11.899
upperneck 34.3906 -4.85561 7.70995
head 16.4198 -3.28219 4.26881
rclavicle -6.21202e-015 -4.37326e-015
rhumerus -35.5645 -18.3032 -75.5553
rradius 33.6763
rwrist 11.3265
rhand -12.4042 10.0681
rfingers 7.12502
rthumb 13.6675 -19.4631
lclavicle -6.21202e-015 -4.37326e-015
lhumerus -32.6061 5.12025 80.6377
lradius 34.1065
lwrist -3.23298
lhand -20.9455 25.5145
lfingers 7.12502
lthumb 5.42692 55.425
rfemur -13.4601 -5.53299 16.402
rtibia 44.5716
rfoot -26.8792 7.21964
rtoes -12.9274
lfemur -5.07843 -4.89601 -18.9667
ltibia 23.1548
lfoot -16.1256 -11.4643
ltoes -7.10071
402
root -1.78757 17.7226 9.17765 -180.19 -4.13506 178.436
lowerback 11.6417 0.790843 -3.31273
upperback 0.161486 0.615118 1.17092
thorax -6.42214 0.39439 3.0054
lowerneck -20.9876 -2.80814 -11.7922
upperneck 34.1809 -4.83194 7.60254
head 16.2144 -3.27075 4.19836
rclavicle -5.06901e-015 -1.98785e-015
rhumerus -35.6313 -18.2061 -75.6965
rradius 33.666
rwrist 11.1791
rhand -12.356 9.94014
rfingers 7.12502
rthumb 13.714 -19.588
lclavicle -5.06901e-015 -1.98785e-015
lhumerus -32.5605 5.37871 80.3507
lradius 33.9175
lwrist -3.25687
lhand -21.0623 25.403
lfingers 7.12502
lthumb 5.31424 55.3164
rfemur -13.5224 -5.85197 17.5161
rtibia 44.5498
rfoot -27.3816 7.94459
rtoes -14.8451
lfemur -5.47279 -4.67042 -18.8644
ltibia 23.8017
lfoot -16.3541 -11.8053
ltoes -5.6596
